# AST/ASF file generated using VICON BodyLanguage
# -----------------------------------------------
:version 1.10
:name VICON
:units
  mass 1.0
  length 0.45
  angle deg
:documentation
   .ast/.asf automatically generated from VICON data using
   VICON BodyBuilder and BodyLanguage model FoxedUp or BRILLIANT.MOD
:root
   order TX TY TZ RX RY RZ
   axis XYZ
   position 0 0 0  
   orientation 0 0 0 
:bonedata
  begin
     id 1 
     name lhipjoint
     direction 0.714689 -0.624256 0.315473 
     length 2.45343 
     axis 0 0 0  XYZ
  end
  begin
     id 2 
     name lfemur
     direction 0.34202 -0.939693 0  
     length 6.59069  
     axis 0 0 20  XYZ
    dof rx ry rz
    limits (-160.0 20.0)
           (-70.0 70.0)
           (-60.0 70.0)
  end
  begin
     id 3 
     name ltibia
     direction 0.34202 -0.939693 0   
     length 6.73476   
     axis 0 0 20   XYZ
    dof rx
    limits (-10.0 170.0)
  end
  begin
     id 4 
     name lfoot
     direction 0.0718085 -0.197292 0.977711   
     length 1.52607   
     axis -90 7.62852e-016 20   XYZ
    dof rx rz
    limits (-45.0 90.0)
           (-70.0 20.0)
  end
  begin
     id 5 
     name ltoes
     direction 1.53553e-011 -4.22024e-011 1   
     length 0.777832   
     axis -90 7.62852e-016 20   XYZ
    dof rx
    limits (-90.0 20.0)
  end
  begin
     id 6 
     name rhipjoint
     direction -0.727419 -0.612432 0.309497   
     length 2.50079  
     axis 0 0 0  XYZ 
  end
  begin
     id 7 
     name rfemur
     direction -0.34202 -0.939693 0   
     length 6.51665   
     axis 0 0 -20   XYZ
    dof rx ry rz
    limits (-160.0 20.0)
           (-70.0 70.0)
           (-70.0 60.0)
  end
  begin
     id 8 
     name rtibia
     direction -0.34202 -0.939693 0   
     length 6.48919   
     axis 0 0 -20   XYZ
    dof rx
    limits (-10.0 170.0)
 end
 begin
     id 9 
     name rfoot
     direction -0.112205 -0.308282 0.944655   
     length 1.68717  
     axis -90 -7.62852e-016 -20   XYZ
    dof rx rz
    limits (-45.0 90.0)
           (-20.0 70.0)
  end
  begin
     id 10 
     name rtoes
     direction -1.53583e-011 -4.21993e-011 1   
     length 0.846859   
     axis -90 -7.62852e-016 -20   XYZ
    dof rx
    limits (-90.0 20.0)
  end
  begin
     id 11 
     name lowerback
     direction -0.00119603 0.996364 -0.0851956   
     length 1.67242   
     axis 0 0 0   XYZ
    dof rx ry rz
    limits (-20.0 45.0)
           (-30.0 30.0)
           (-30.0 30.0)
  end
  begin
     id 12 
     name upperback
     direction -0.00531001 0.998318 0.0577248   
     length 1.64819   
     axis 0 0 0   XYZ
    dof rx ry rz
    limits (-20.0 45.0)
           (-30.0 30.0)
           (-30.0 30.0)
  end
  begin
     id 13 
     name thorax
     direction -0.00653676 0.995132 0.0983291   
     length 1.67429   
     axis 0 0 0   XYZ
    dof rx ry rz
    limits (-20.0 45.0)
           (-30.0 30.0)
           (-30.0 30.0)
  end
  begin
     id 14 
     name lowerneck
     direction 0.0141424 0.999886 0.00525412   
     length 1.59623   
     axis 0 0 0   XYZ
    dof rx ry rz
    limits (-20.0 45.0)
           (-30.0 30.0)
           (-30.0 30.0)
  end
  begin
     id 15 
     name upperneck
     direction -0.0640064 0.987178 -0.146232   
     length 1.59576   
     axis 0 0 0   XYZ
    dof rx ry rz
    limits (-20.0 45.0)
           (-30.0 30.0)
           (-30.0 30.0)
  end
  begin
     id 16
     name head
     direction -0.0222942 0.998496 -0.0500859  
     length 1.60959  
     axis 0 0 0   XYZ
    dof rx ry rz
    limits (-20.0 45.0)
           (-30.0 30.0)
           (-30.0 30.0)
  end
  begin
     id 17 
     name lclavicle
     direction 0.908549 0.392612 0.142806  
     length 2.80649  
     axis 0 0 0   XYZ
    dof ry rz
    limits (-20.0 10.0)
           (0.0 20.0)
  end
  begin
     id 18 
     name lhumerus
     direction 1 -4.48968e-011 1.08832e-028   
     length 4.2884   
     axis -180 -30 -90   XYZ
    dof rx ry rz
    limits (-60.0 90.0)
           (-90.0 90.0)
           (-90.0 90.0)
  end
  begin
     id 19
     name lradius
     direction 1 -4.48952e-011 -3.02642e-028   
     length 3.06552   
     axis -180 -30 -90   XYZ
    dof rx
    limits (-10.0 170.0)
  end
  begin
     id 20
     name lwrist
     direction 1 -4.49014e-011 1.58672e-027   
     length 1.53276   
     axis -1.65735e-015 90 90   XYZ
    dof ry
    limits (-180.0 0.0)
 end
  begin
     id 21 
     name lhand
     direction 1 -4.48928e-011 3.17344e-027   
     length 0.753045   
     axis -2.02492e-015 90 90   XYZ
    dof rx rz
    limits (-90.0 90.0)
           (-45.0 45.0)
  end
  begin
     id 22 
     name lfingers
     direction 1 -4.48958e-011 6.34687e-027   
     length 0.607124   
     axis -4.04985e-015 90 90   XYZ
    dof rx
    limits (0.0 90.0)
  end
  begin
     id 23
     name lthumb
     direction 0.707107 -6.34905e-011 0.707107   
     length 0.871712   
     axis -90 45 2.85299e-015   XYZ
    dof rx rz
    limits (-45.0 45.0)
           (-45.0 45.0)
  end
  begin
     id 24 
     name rclavicle
     direction -0.885098 0.45949 0.0739604   
     length 2.9478  
     axis 0 0 0   XYZ 
    dof ry rz
    limits (-10.0 20.0)
           (-20.0 0.0)
  end
  begin
     id 25 
     name rhumerus
     direction -1 -4.4898e-011 -2.61739e-027  
     length 4.52172   
     axis -180 30 90   XYZ
    dof rx ry rz
    limits (-90.0 60.0)
           (-90.0 90.0)
           (-90.0 90.0)
  end
  begin
     id 26 
     name rradius
     direction -1 -4.48945e-011 9.02552e-028   
     length 2.8914   
     axis -180 30 90   XYZ
    dof rx
    limits (-10.0 170.0)
  end
  begin
     id 27 
     name rwrist
     direction -1 -4.49018e-011 1.58672e-027   
     length 1.4457   
     axis -1.65735e-015 -90 -90   XYZ
    dof ry
    limits (-180.0 0.0)
  end
  begin
     id 28
     name rhand
     direction -1 -4.48825e-011 3.17344e-027   
     length 0.680541   
     axis -2.02492e-015 -90 -90   XYZ
    dof rx rz
    limits (-90.0 90.0)
           (-45.0 45.0)
  end
  begin
     id 29
     name rfingers
     direction -1 -4.49067e-011 6.34687e-027   
     length 0.54867   
     axis -4.04985e-015 -90 -90   XYZ
    dof rx
    limits (0.0 90.0)
  end
  begin
     id 30
     name rthumb
     direction -0.707107 -6.34833e-011 0.707107   
     length 0.787783   
     axis -90 -45 -2.85299e-015   XYZ
    dof rx rz
    limits (-45.0 45.0)
           (-45.0 45.0)
  end
:hierarchy
  begin
    root lhipjoint rhipjoint lowerback
    lhipjoint lfemur
    lfemur ltibia
    ltibia lfoot
    lfoot ltoes
    rhipjoint rfemur
    rfemur rtibia
    rtibia rfoot
    rfoot rtoes
    lowerback upperback
    upperback thorax
    thorax lowerneck lclavicle rclavicle
    lowerneck upperneck
    upperneck head
    lclavicle lhumerus
    lhumerus lradius
    lradius lwrist
    lwrist lhand lthumb
    lhand lfingers
    rclavicle rhumerus
    rhumerus rradius
    rradius rwrist
    rwrist rhand rthumb
    rhand rfingers
  end

#!OML:ASF E:\emotionWalksFemale\Project 1\Capture day 1\Session 1\Female1.ASF
:FULLY-SPECIFIED
:DEGREES
32
root 8.79037 15.5295 14.4201 -177.379 2.36908 -178.232
lowerback 13.4139 0.830581 1.75782
upperback -3.29585 1.43709 0.0751069
thorax -11.108 0.569461 -1.23946
lowerneck -7.54761 -2.46035 -7.31552
upperneck 3.63648 -3.03327 7.66697
head 2.53602 -1.37946 3.36821
rclavicle 8.74963e-015 5.96354e-016
rhumerus -62.8604 24.5115 -100.849
rradius 49.7195
rwrist 5.43574
rhand -13.3973 -56.8501
rfingers 7.12502
rthumb 12.7102 -86.4433
lclavicle 8.74963e-015 5.96354e-016
lhumerus -55.4582 -15.385 89.1415
lradius 39.7634
lwrist -6.37061
lhand 2.06928 -44.0828
lfingers 7.12502
lthumb 27.5708 -16.0822
rfemur -6.3449 10.4794 25.1752
rtibia 20.239
rfoot -14.9769 -24.6294
rtoes -13.5891
lfemur -12.4949 -10.5908 -20.0631
ltibia 29.0491
lfoot -23.8655 12.9341
ltoes -34.6262
33
root 8.7906 15.5218 14.4386 -177.19 2.36909 -178.156
lowerback 13.4875 0.859023 1.80142
upperback -3.0896 1.48186 0.0953558
thorax -10.9184 0.591816 -1.25099
lowerneck -7.9071 -2.51726 -7.38424
upperneck 3.43234 -3.08276 7.78202
head 2.54043 -1.39743 3.40942
rclavicle 1.33155e-014 0
rhumerus -62.5251 24.813 -100.481
rradius 49.9069
rwrist 5.75022
rhand -13.3773 -57.0936
rfingers 7.12502
rthumb 12.7295 -86.6856
lclavicle 1.33155e-014 0
lhumerus -55.0112 -15.7285 88.9857
lradius 39.9295
lwrist -5.94514
lhand 2.09631 -44.1389
lfingers 7.12502
lthumb 27.5967 -16.1424
rfemur -7.07414 9.95939 25.1797
rtibia 20.9823
rfoot -15.3882 -24.1583
rtoes -13.2408
lfemur -13.1424 -10.0973 -19.9125
ltibia 29.6405
lfoot -23.8609 12.6161
ltoes -34.6651
34
root 8.79084 15.508 14.4544 -177.035 2.335 -178.136
lowerback 13.5871 0.854113 1.78606
upperback -2.95064 1.47516 0.124151
thorax -10.8231 0.592637 -1.20992
lowerneck -7.94317 -2.55635 -7.51992
upperneck 3.13033 -3.11391 7.87587
head 2.46231 -1.41382 3.45896
rclavicle -5.4262e-015 5.96354e-016
rhumerus -62.3798 25.1668 -100.152
rradius 50.2188
rwrist 5.9611
rhand -12.8328 -57.1908
rfingers 7.12502
rthumb 13.2544 -86.7494
lclavicle -5.4262e-015 5.96354e-016
lhumerus -54.8346 -16.0304 88.9241
lradius 40.1829
lwrist -5.37276
lhand 1.88085 -44.2634
lfingers 7.12502
lthumb 27.3906 -16.2341
rfemur -7.71905 9.3898 25.1401
rtibia 21.7128
rfoot -15.6817 -23.6763
rtoes -13.4968
lfemur -13.7016 -9.65135 -19.8417
ltibia 30.2459
lfoot -23.9935 12.3703
ltoes -35.0178
35
root 8.79102 15.4926 14.4692 -176.826 2.25371 -178.157
lowerback 13.6289 0.817629 1.749
upperback -2.88192 1.4211 0.139112
thorax -10.7739 0.570872 -1.16061
lowerneck -7.51158 -2.52485 -7.74258
upperneck 2.40369 -3.04881 7.74718
head 2.41706 -1.41465 3.85082
rclavicle -2.20651e-014 -5.1684e-015
rhumerus -62.4578 25.6167 -99.9834
rradius 50.6048
rwrist 5.92253
rhand -13.7009 -57.0556
rfingers 7.12502
rthumb 12.4175 -86.6667
lclavicle -2.20651e-014 -5.1684e-015
lhumerus -54.8575 -16.2239 88.8042
lradius 40.4724
lwrist -4.9577
lhand 1.43688 -44.6589
lfingers 7.12502
lthumb 26.9659 -16.5633
rfemur -8.37723 9.0678 25.0617
rtibia 22.4233
rfoot -16.1293 -23.4464
rtoes -13.1099
lfemur -14.3162 -9.24111 -19.7997
ltibia 30.8364
lfoot -24.2591 11.9335
ltoes -35.3012
36
root 8.79058 15.4846 14.484 -176.61 2.15278 -178.183
lowerback 13.7049 0.791206 1.74787
upperback -2.7975 1.38333 0.116842
thorax -10.7249 0.553054 -1.17616
lowerneck -7.25347 -2.52066 -7.76367
upperneck 2.00247 -3.05081 7.84061
head 2.23711 -1.42054 3.88459
rclavicle 5.71506e-016 2.68359e-015
rhumerus -62.4396 26.0497 -99.8619
rradius 50.8092
rwrist 5.95483
rhand -14.1183 -56.9665
rfingers 7.12502
rthumb 12.015 -86.6016
lclavicle 5.71506e-016 2.68359e-015
lhumerus -54.985 -16.5218 88.6581
lradius 40.9927
lwrist -4.51974
lhand 0.653953 -45.1093
lfingers 7.12502
lthumb 26.2166 -16.9
rfemur -9.07742 8.61678 24.9763
rtibia 23.1438
rfoot -16.4366 -23.1635
rtoes -12.6955
lfemur -14.9894 -8.81783 -19.7585
ltibia 31.438
lfoot -24.4886 11.4974
ltoes -35.6108
37
root 8.7893 15.4791 14.5033 -176.432 2.06129 -178.143
lowerback 13.967 0.76294 1.77514
upperback -2.69799 1.35769 0.140515
thorax -10.7688 0.540046 -1.16435
lowerneck -7.32658 -2.57526 -7.67307
upperneck 1.77815 -3.12008 7.78731
head 2.17746 -1.45633 3.84204
rclavicle -9.18137e-015 -2.08724e-015
rhumerus -62.3169 26.4858 -99.6408
rradius 50.9813
rwrist 5.91187
rhand -13.911 -57.002
rfingers 7.12502
rthumb 12.2149 -86.6253
lclavicle -9.18137e-015 -2.08724e-015
lhumerus -55.2022 -16.8509 88.5753
lradius 41.7501
lwrist -4.10004
lhand -0.181743 -45.3971
lfingers 7.12502
lthumb 25.4163 -17.0714
rfemur -9.76202 7.89377 24.9712
rtibia 23.858
rfoot -16.6555 -22.6998
rtoes -12.9598
lfemur -15.6662 -8.39819 -19.6628
ltibia 32.0709
lfoot -24.6556 11.1567
ltoes -36.0749
38
root 8.78906 15.4672 14.5251 -176.252 2.0198 -178.059
lowerback 14.3282 0.744215 1.82367
upperback -2.63234 1.35221 0.165233
thorax -10.9074 0.533942 -1.17034
lowerneck -7.4961 -2.59334 -7.6159
upperneck 1.59378 -3.13453 7.74616
head 2.1456 -1.46351 3.81344
rclavicle 1.62134e-015 -1.0138e-014
rhumerus -62.2739 26.9348 -99.4967
rradius 51.1915
rwrist 5.56293
rhand -14.6335 -56.7514
rfingers 7.12502
rthumb 11.5182 -86.4149
lclavicle 1.62134e-015 -1.0138e-014
lhumerus -55.1665 -17.1576 88.4436
lradius 42.0488
lwrist -3.91597
lhand -0.868145 -45.5752
lfingers 7.12502
lthumb 24.7586 -17.1576
rfemur -10.434 7.29114 25.0184
rtibia 24.5581
rfoot -16.896 -22.2381
rtoes -13.3225
lfemur -16.327 -8.028 -19.5285
ltibia 32.7057
lfoot -24.8234 10.789
ltoes -36.2448
39
root 8.78951 15.4488 14.5446 -176.034 2.01684 -178.001
lowerback 14.6219 0.750113 1.92448
upperback -2.5656 1.37946 0.112227
thorax -11.0008 0.537435 -1.2968
lowerneck -7.75718 -2.60217 -7.59266
upperneck 1.4825 -3.13825 7.81604
head 2.15852 -1.46241 3.83222
rclavicle 1.6201e-014 -1.19271e-015
rhumerus -62.1669 27.1661 -99.3182
rradius 51.3919
rwrist 5.52598
rhand -15.0822 -56.4256
rfingers 7.12502
rthumb 11.0855 -86.1128
lclavicle 1.6201e-014 -1.19271e-015
lhumerus -54.9251 -17.5408 88.2332
lradius 42.1206
lwrist -3.65125
lhand -1.22667 -45.8119
lfingers 7.12502
lthumb 24.4149 -17.3475
rfemur -11.1626 6.97525 25.0412
rtibia 25.3002
rfoot -17.1412 -22.0007
rtoes -13.6444
lfemur -16.9792 -7.716 -19.4183
ltibia 33.3418
lfoot -25.0042 10.4781
ltoes -36.1645
40
root 8.78872 15.4303 14.5628 -175.823 1.98699 -178.003
lowerback 14.7874 0.748243 1.94748
upperback -2.40915 1.38287 0.0953626
thorax -10.9216 0.53979 -1.33071
lowerneck -8.00675 -2.63487 -7.53625
upperneck 1.29589 -3.17081 7.78642
head 2.14258 -1.4783 3.80683
rclavicle -7.95139e-016 4.27387e-015
rhumerus -61.9444 27.4469 -98.9696
rradius 51.5962
rwrist 5.80058
rhand -15.3442 -56.521
rfingers 7.12502
rthumb 10.8328 -86.2216
lclavicle -7.95139e-016 4.27387e-015
lhumerus -54.641 -17.8326 88.0599
lradius 42.4166
lwrist -3.24218
lhand -1.22801 -46.017
lfingers 7.12502
lthumb 24.4136 -17.5525
rfemur -11.9291 6.73622 25.0045
rtibia 26.1301
rfoot -17.4733 -21.9219
rtoes -14.0049
lfemur -17.6299 -7.37014 -19.3776
ltibia 33.9834
lfoot -25.2285 10.1462
ltoes -36.1072
